<svg width="759" height="761" viewBox="0 0 759 761" fill="none" xmlns="http://www.w3.org/2000/svg">
<path d="M435.551 67.7031C453.403 70.2778 465.591 73.3677 486.189 80.5771C510.907 88.9881 510.907 88.9881 498.548 93.6227C480.182 100.489 463.015 115.423 454.604 131.901C452.202 136.707 450.142 141.514 450.142 142.373C450.142 143.231 454.261 145.977 459.411 148.208C473.486 154.732 486.189 163.314 498.719 175.158L510.049 185.801L520.863 179.278C526.871 175.845 539.916 167.262 550.044 160.396C571.5 145.805 570.814 145.291 564.463 172.24C556.911 203.995 555.881 214.81 558.97 229.744C560.515 236.954 563.605 249.483 565.836 257.551C568.239 265.448 569.956 272.314 569.613 272.657C569.269 272.829 565.149 273.515 560.172 274.202L551.417 275.232V283.472C551.417 305.271 558.112 335.998 568.583 362.432C576.136 381.142 576.994 388.008 572.53 392.471C568.926 396.076 556.911 401.569 552.618 401.74C550.216 401.74 549.701 403.457 549.701 412.554C549.701 421.137 549.014 424.227 546.44 426.458C544.38 428.346 542.834 432.809 542.147 438.303C540.775 450.661 540.603 452.721 541.119 464.05C541.462 471.774 540.775 475.208 538.2 478.641C531.334 488.082 508.504 491.515 480.353 487.567C469.367 485.851 459.104 481.567 455.5 485C453.44 486.888 450.343 491.5 449 498.5C446.314 512.5 449.112 532.026 450.486 535.801C452.202 540.264 477.092 547.474 496.66 549.191C524.811 551.936 542.834 560.347 552.275 575.11C554.678 579.058 558.112 582.491 559.657 583.006C574.076 587.64 582.83 594.679 587.292 605.664C589.181 609.956 592.614 612.702 603.085 618.195C610.637 622.143 616.645 625.92 616.645 626.606C616.645 627.464 613.213 630.897 609.093 634.331C601.54 640.511 601.369 640.511 596.905 637.592C591.412 633.987 589.696 635.532 592.271 641.368C593.472 643.772 593.816 646.689 593.129 647.892C591.241 650.98 573.389 666.087 571.5 666.087C570.643 666.087 570.643 661.795 571.5 656.13C573.217 643.599 572.53 618.882 570.299 611.844C569.269 608.926 566.866 604.978 564.806 603.261C561.202 600 561.202 600 562.232 605.149C562.918 607.896 563.948 618.023 564.463 627.464C566.008 649.607 563.089 667.631 557.082 674.841C552.447 680.333 543.177 685.827 541.462 684.282C540.946 683.595 542.147 676.042 544.207 667.288C548.156 649.952 550.387 635.188 549.014 635.188C548.5 635.188 545.41 641.196 541.976 648.406C533.909 665.744 524.297 677.93 510.392 688.401C489.965 703.85 465.591 708.485 434.865 703.164C402.422 697.499 380.622 688.058 322.946 654.586C222.529 596.224 186.997 580.603 144.599 576.14L135.158 575.11L150.607 580.775C187.684 594.679 215.664 609.441 264.756 641.025C349.382 695.268 351.956 696.812 389.72 710.03C404.482 715.179 416.842 719.814 417.356 720.5C419.244 722.388 373.928 719.127 362.427 716.553C347.836 713.291 321.573 698.701 276.772 669.176C223.559 633.987 184.766 612.874 154.555 602.403C143.74 598.627 142.883 598.455 139.965 601.373C136.703 604.12 136.359 603.777 129.665 593.477C125.717 587.64 119.709 578.715 116.105 573.737C109.925 565.154 109.582 564.296 112.5 562.236C114.216 561.034 122.799 558.289 131.382 556.229C140.136 553.996 156.1 548.161 167.258 543.011C192.834 531.167 202.789 529.279 220.985 532.712C233 534.943 235.403 534.943 239.523 532.712C247.076 528.936 257.375 517.263 264.242 505.247C269.734 495.292 280.205 470.059 280.205 466.453C280.205 465.767 275.571 465.596 269.906 466.282C254.114 467.999 252.912 466.797 261.152 457.185C271.623 444.654 276.772 432.123 276.772 419.077C276.772 410.838 276.257 408.434 274.541 409.121C273.339 409.636 265.1 415.13 256.516 421.308C235.232 436.586 217.895 447.744 210.514 450.834C204.506 453.408 204.334 453.237 205.536 450.318C211.716 435.899 214.977 419.077 214.977 401.569C214.977 383.373 214.805 382 204.677 351.446C199.013 334.281 193.177 314.712 191.975 308.189C183.393 266.478 189.572 220.646 208.969 181.166C237.12 123.834 289.303 84.0102 353.673 70.4495C375.301 65.8149 414.438 64.6134 435.551 67.7031ZM353.845 89.1598C316.252 97.7424 287.758 113.191 261.323 139.111C223.559 176.188 206.394 217.213 206.394 270.769C206.394 295.487 210.686 317.459 221.328 346.64C225.619 358.484 229.225 368.439 229.396 368.611C230.426 369.813 251.024 354.193 251.024 352.476C251.024 351.274 249.651 346.64 247.763 342.176C237.12 315.056 235.232 276.605 242.957 246.909C248.45 225.796 255.315 211.548 267.846 194.555C300.117 151.126 354.53 127.953 410.318 134.133C419.416 134.991 428.17 136.193 429.544 136.536C431.26 137.051 434.007 133.79 437.955 125.894C441.216 119.714 448.082 109.93 453.403 104.437C460.784 96.3692 462.33 93.966 460.441 92.7645C459.068 91.9062 450.657 90.018 441.559 88.4731C432.634 86.9283 424.05 85.3834 422.677 85.0401C415.296 83.1519 367.405 86.0701 353.845 89.1598ZM362.599 154.559C351.098 156.963 340.971 160.396 328.269 166.747C312.648 174.643 308.357 177.732 293.937 192.152C270.249 215.84 260.808 235.751 256.002 271.455C252.225 301.151 257.719 328.101 273.511 355.565C285.183 376.164 290.161 387.493 292.907 400.195L295.139 411.181L299.773 401.225C302.177 395.732 305.953 385.605 308.013 378.567C312.132 364.492 312.476 365.693 301.49 348.527C293.079 335.139 288.445 321.921 287.586 308.189C284.325 262.358 319.685 223.221 364.315 223.221C377.361 223.221 387.145 225.796 401.564 233.005L413.923 239.014L441.902 224.079C475.546 206.055 493.055 195.756 493.055 194.04C493.055 191.98 477.092 179.106 465.419 171.897C436.066 153.529 398.474 147.178 362.599 154.559ZM537.17 189.577C523.781 199.533 473.143 228.027 430.23 249.483L407.744 260.813L402.765 255.663C400.191 252.917 393.668 248.453 388.347 246.051C380.451 242.102 376.502 241.416 364.315 241.245C351.785 241.245 348.352 241.931 340.112 245.879C327.753 252.059 315.909 263.903 309.901 276.09C305.61 284.844 305.095 287.763 305.095 303.039C305.095 318.317 305.61 321.235 309.73 329.647C316.939 344.065 325.179 352.819 338.224 359.171C348.352 364.148 351.269 364.835 363.457 364.835C374.958 364.835 378.734 364.148 386.973 360.028C406.542 350.416 419.587 329.818 420.617 306.816C421.133 296.688 421.99 293.255 424.223 292.054C432.805 287.419 511.079 266.305 538.886 260.813C547.641 259.268 549.701 258.239 549.701 255.663C549.701 253.26 548.5 252.402 545.41 252.402C538.2 252.402 491.167 263.388 454.604 273.687C435.722 279.008 419.759 283.3 419.244 283.3C417.871 283.3 414.095 271.455 414.095 267.508C414.095 265.963 415.812 264.418 417.872 263.903C420.103 263.56 436.581 258.753 454.777 253.432C472.972 248.111 498.034 241.416 510.564 238.67C523.094 235.924 534.939 233.177 536.999 232.661C540.26 231.975 540.775 230.259 541.805 213.436C542.32 203.137 543.35 192.839 543.864 190.092C545.237 184.428 544.207 184.256 537.17 189.577ZM509.877 284.33C485.674 289.479 449.283 300.98 443.962 305.271C441.902 306.988 438.298 314.197 435.722 322.093C433.148 329.818 427.998 341.146 424.394 347.326C420.617 353.506 410.988 365.699 410.257 366.794C409.257 368.294 399.512 375.226 402.257 383.294C406.257 398.794 395.257 411.794 394.257 413.794L388.257 419.794L414.095 443.453C425.424 453.58 454.433 467.999 470.741 471.603C477.778 473.148 491.854 474.35 501.809 474.521C517.601 474.693 520.691 474.178 523.781 471.431C527.901 467.655 528.415 460.618 525.326 452.035C523.61 447.4 523.781 445.34 526.356 440.19C529.618 432.982 532.5 430.5 520.177 429.205C516.571 428.175 506.516 425.53 506 424.5C503.941 421.41 516.743 418.391 526.871 416.331L536.826 414.271L536.312 404.83C535.625 393.329 539.059 388.695 549.357 386.978C560.686 385.261 561.202 384.231 557.597 374.79C545.924 345.095 539.402 322.608 537.685 305.615C535.11 282.613 534.595 279.866 532.535 279.866C531.678 279.866 521.378 281.926 509.877 284.33ZM246.733 379.94L234.717 388.867L233.172 401.397C232.486 408.263 232.142 414.443 232.657 414.957C233.343 415.644 264.07 394.874 271.279 388.867C272.653 387.665 262.696 370.843 260.808 370.843C259.779 370.843 253.255 374.963 246.733 379.94ZM398.646 381.657C404.654 391.441 397.011 407.115 388.257 413.294C380.876 418.444 374.443 415.928 383.197 411.294C392.982 405.973 400.34 396.339 391.757 383.294C387.638 377.115 383.757 375.294 386.973 372.294C391.257 370.794 395.384 376.164 398.646 381.657ZM328.269 378.224C328.269 382.344 307.841 421.652 303.035 426.631C293.937 436.415 287.071 444.826 287.071 446.37C287.071 450.834 304.025 438.99 317.757 430.922C334.922 420.966 346.257 413.294 350.583 401.397C350.583 397.792 351.785 391.957 353.158 388.523C356.419 380.799 356.419 381.142 351.785 381.142C349.725 380.97 344.061 379.597 339.425 377.88C330.5 374.619 328.269 374.79 328.269 378.224ZM368 383.5C360.5 391 364.5 404 376.5 406.5C389 407.306 394.257 392 386.973 384.5C383.866 381.3 372.5 379 368 383.5ZM355.257 426.631C344.394 434.183 339.082 437.788 328.269 443.453C319.685 448.088 321.23 457.871 311.961 492.716C308.184 506.964 302.863 522.069 297.886 532.026C288.959 550.221 288.273 548.504 306.811 555.542C313.334 558.116 334.276 567.214 353.158 575.968C411.863 603.09 430.23 609.441 450.142 609.441C465.762 609.441 476.748 603.948 491.682 588.67C498.205 581.976 503.355 575.797 502.839 574.595C502.153 572.535 456.664 554.683 452.03 554.512C450.313 554.512 449.97 556.229 450.657 561.893C453.574 582.319 438.985 573.051 434.521 551.422C431.604 536.66 424.872 502.329 435 479.5C436.03 477.269 438.202 475.195 425.5 468.5C404.215 457.515 400.362 453.237 383.197 434.698C375.129 426.115 367.748 419.077 366.547 418.905C365.345 418.905 359.034 421.481 355.257 426.631ZM289.646 484.992C282.265 504.733 275.571 517.606 266.302 529.45C257.203 540.78 257.719 543.698 267.846 538.377C280.548 531.682 289.475 516.061 296.512 488.254C304.408 457.185 300.46 455.296 289.646 484.992ZM222.701 549.878C224.589 551.251 232.313 555.542 239.867 559.662C247.42 563.781 271.623 577.856 293.594 590.902C315.394 603.948 342.858 619.225 354.188 625.061C400.705 648.235 447.223 658.019 474.688 649.952C486.361 646.518 502.325 632.614 510.049 619.225C517.258 606.351 523.094 585.409 519.147 585.409C518.46 585.409 510.907 592.104 502.496 600.515C482.756 619.569 471.942 625.233 452.544 626.263C428.685 627.636 413.408 622.486 341.142 589.186C280.72 561.377 243.987 548.332 224.418 547.818C219.611 547.645 219.611 547.818 222.701 549.878ZM184.937 561.034C185.967 561.721 190.945 564.296 196.095 566.699C213.604 574.424 266.987 603.605 313.678 630.897C391.436 676.386 415.983 686.513 451.172 688.058C469.367 688.744 473.315 688.401 483.271 685.14C505.415 677.759 518.975 664.714 530.991 639.481C538.886 622.659 544.207 598.798 541.29 591.76C538.886 585.581 535.969 585.753 535.969 592.276C535.969 605.149 519.318 634.845 504.899 648.235C483.099 668.147 461.643 673.125 425.253 666.773C389.549 660.765 355.217 645.832 295.31 610.814C256.861 588.499 205.536 561.893 198.498 560.863C189.572 559.662 183.393 559.662 184.937 561.034Z" fill="#334571"/>
<path d="M382.078 258.863C398.042 266.759 407.654 282.723 407.654 300.746C407.483 326.494 386.884 347.951 362.338 347.951C350.494 347.951 340.882 343.66 331.441 334.219C321.656 324.435 317.708 315.337 317.708 301.605C317.708 282.551 327.835 266.588 345.173 258.863C355.472 254.057 372.637 254.057 382.078 258.863ZM347.404 276.886C333.501 287.357 330.067 305.553 339.508 318.598C343.456 323.919 356.158 330.786 362.166 330.786C369.719 330.786 380.19 324.435 385.168 316.71C394.609 302.119 388.772 280.834 373.496 273.969C367.831 271.393 352.383 273.282 347.404 276.886Z" fill="#334571"/>
<path d="M370.923 291.304C376.072 296.454 375.557 305.552 369.893 310.015C358.907 318.597 346.033 309.5 350.496 296.454C353.758 287.529 364.4 284.782 370.923 291.304Z" fill="#334571"/>
<path d="M367.952 414.426C367.952 442.111 350.05 461.785 331.278 480.19C316.689 494.492 301.99 507.043 292.168 525.284" stroke="#334571" stroke-width="14" stroke-linecap="round"/>
<path d="M323.484 487.705C319.691 491.497 316.955 498.546 315.202 503.502C312.308 511.687 311.583 519.763 311.583 528.416C311.583 543.51 317.527 558.983 329.12 569.126" stroke="#334571" stroke-width="14" stroke-linecap="round"/>
<path d="M277.762 458.895C275.951 459.297 273.556 464.36 272.613 465.784C268.871 471.437 264.062 476.85 259.112 481.442C249.713 490.162 240.79 501.142 228.283 504.964C216.733 508.493 205.673 512.644 195.158 518.743C185.892 524.117 180.499 529.265 176.299 539.063" stroke="#334571" stroke-width="14" stroke-linecap="round"/>
<path d="M265 462C263.489 462.581 266.17 460.95 265 462ZM265 462C261.498 465.141 259.5 468 255.5 472C248.151 477.432 241.334 485.102 233.572 489.932C227.138 493.937 220.292 497.077 212.938 498.944C205.442 500.848 197.631 501.048 190.078 502.737C175.638 505.966 162.017 514.418 153.264 526.537C146.458 535.961 142.37 545.651 138.72 556.6" stroke="#334571" stroke-width="14" stroke-linecap="round"/>
<path d="M479.901 479C479.901 494.419 476.325 508.168 483.42 522.694C489.169 534.464 496.208 545.118 505 555" stroke="#334571" stroke-width="14" stroke-linecap="round"/>
<circle cx="388" cy="383" r="362" stroke="#334571" stroke-width="18"/>
<path d="M466.961 331.952L512.58 347.649C513.13 347.839 513.725 347.52 513.872 346.958L518.463 329.484L521.819 308.568C521.915 307.971 521.463 307.426 520.859 307.41L505.639 307L488.061 308.314C487.989 308.32 487.918 308.333 487.849 308.354L465.161 315.14C464.025 315.48 464.32 317.164 465.504 317.096L487.952 315.817L505.753 314.951C505.967 314.941 506.178 314.999 506.355 315.117L508.137 316.301C508.494 316.539 508.66 316.978 508.549 317.393L507.094 322.834C507.013 323.135 506.795 323.383 506.506 323.499C493.325 328.792 480.326 327.769 467.084 330.114C466.092 330.29 466.009 331.624 466.961 331.952Z" fill="#334571"/>
</svg>
