<svg width="70" height="70" viewBox="0 0 70 70" fill="none" xmlns="http://www.w3.org/2000/svg">
<path d="M41.8878 0.134327C46.1463 0.653979 50.3131 2.00286 52.7972 3.65027C53.3467 4.01513 54.1824 4.77802 54.1824 4.92176C54.1824 4.96598 53.7474 5.0655 53.2208 5.13183C50.8397 5.44141 47.955 7.26572 46.1348 9.62074C45.1961 10.8369 43.5133 13.7227 43.6736 13.8443C43.6965 13.8554 44.017 13.977 44.3948 14.1207C46.524 14.9168 48.2755 16.0445 50.1987 17.8688L51.6639 19.2398L53.2322 19.1735C54.9379 19.1182 55.8881 18.9081 57.216 18.3332C57.9143 18.0236 57.9257 18.0236 57.8685 18.2558C57.754 18.7312 56.9412 20.3012 56.4604 20.9867C56.1857 21.3737 55.6706 21.9818 55.3157 22.3246L54.6517 22.9658L54.709 23.6513C54.7319 24.0383 54.812 24.9892 54.8692 25.7631C55.1211 28.9031 54.9837 29.2901 53.5757 29.4449L52.9232 29.5223V31.1034C52.9232 32.4854 52.969 32.8282 53.2551 33.9449C53.7817 35.9129 54.3884 37.6267 55.0066 38.9203C55.6362 40.236 55.6477 40.4792 55.1211 41.021C54.812 41.3306 54.1023 41.5738 53.1292 41.7065C52.74 41.7507 52.5225 41.8502 52.3508 42.0603C52.0761 42.392 52.0646 42.6352 52.2936 43.3428C52.4767 43.9399 52.4424 44.1057 51.9845 44.6143C51.6296 45.0124 51.6067 45.145 51.7899 45.7421C51.9043 46.1069 51.8814 46.2175 51.5609 46.8035C51.1603 47.5443 51.1374 47.7875 51.3892 48.6278C51.8357 50.0541 51.5266 51.0381 50.4391 51.6241C49.2027 52.2985 47.9321 52.4091 45.1961 52.0885C44.3719 52 43.2958 51.9116 42.7807 51.9005C41.2582 51.8784 40.9033 52.1769 38.4078 55.5602C36.496 58.1253 35.0994 60.5798 34.3782 62.6031C33.8631 64.0736 33.6227 64.5159 33.4396 64.339C33.3709 64.2726 33.2907 63.2002 33.2335 61.9176C33.1076 58.5012 32.9588 58.2801 30.8868 58.3022C28.4027 58.3464 25.7011 59.3968 22.8163 61.4533C21.8891 62.1056 19.84 63.9852 19.84 64.1731C19.84 64.3169 23.2055 65.92 24.6479 66.4618C32.1918 69.2923 41.2124 69.7124 48.9738 67.6117C56.8497 65.4778 63.1458 61.6302 68.5833 55.6376C70.4607 53.57 70.4722 53.6806 68.6177 55.9029C64.0845 61.3537 58.2806 65.4336 51.8586 67.678C47.1307 69.3365 43.147 70.0109 38.0987 69.9999C35.0422 69.9999 33.7715 69.8782 30.8295 69.3365C20.2406 67.3574 10.35 60.5024 4.94678 51.3809C2.3253 46.9583 0.676868 42.0713 0.138836 37.0628C-0.0443237 35.3822 -0.0443261 31.037 0.127386 29.3786C0.688313 24.2594 2.38254 18.8307 4.86664 14.2313C5.80534 12.4844 7.63693 9.77553 8.94195 8.20552C10.3385 6.51389 10.3614 6.61339 9.01063 8.4377C4.63769 14.375 1.91319 21.2853 1.18055 28.3724C1.03174 29.8429 1.03174 34.4424 1.18055 35.9129C1.69569 40.8772 3.32123 46.1622 5.38178 49.5897L5.66797 50.0651L5.91981 49.7334C6.24034 49.2912 7.14469 48.6167 7.99181 48.1855C8.713 47.8096 8.82747 47.6659 8.83892 47.1352C8.86181 46.5381 9.21669 45.3662 9.6288 44.5259C9.93788 43.9288 10.2813 43.4645 10.9109 42.8564C11.8496 41.9276 12.6738 41.4854 14.8603 40.7114C16.6576 40.0701 17.7336 39.4841 18.6723 38.6217C19.1302 38.2016 19.5309 37.7483 19.5652 37.6156C19.5996 37.4719 19.4736 36.8969 19.279 36.322C18.6838 34.5088 18.4663 33.2483 18.3976 31.2582C18.3632 30.252 18.3747 29.0469 18.4319 28.5604L18.5349 27.698L17.9626 27.7754C17.2528 27.8638 17.1841 27.9081 16.8064 28.6931C16.3485 29.6329 16.1768 30.5727 16.1768 32.3085C16.1768 33.193 16.1081 34.166 16.0165 34.5861C15.6731 36.134 14.7458 37.6156 13.3034 38.9424C12.5594 39.6168 11.323 40.4239 11.1971 40.3023C11.1742 40.2802 11.323 39.8158 11.5405 39.2741C12.0671 37.9141 12.2159 36.9964 12.1358 35.5259C12.09 34.4866 11.987 34.0112 11.4947 32.3638C10.4301 28.8368 10.1096 26.3712 10.3271 23.4744C10.682 18.8529 12.2388 14.6735 15.0091 10.9254C16.5431 8.83573 19.5309 6.11585 21.9577 4.57901C23.217 3.78295 26.2505 2.33456 27.7845 1.79279C29.3986 1.21786 32.0888 0.58764 34.0921 0.300173C36.29 -0.0204628 40.0219 -0.0978578 41.8878 0.134327ZM34.2867 0.897221C30.7379 1.41687 26.9832 2.5778 24.19 4.02619C19.9659 6.22642 16.3141 9.67602 14.0704 13.59C13.5553 14.4856 13.5896 14.574 14.1277 13.7669C15.9364 11.036 19.8399 7.55319 23.1368 5.72888C27.8646 3.11956 33.3709 1.82596 38.9572 1.99181C42.8494 2.11343 45.6082 2.69942 48.8822 4.10359L49.8095 4.50162L50.9084 4.20309L51.9959 3.90457L51.2289 3.49548C48.8708 2.24611 44.887 1.11835 41.51 0.742434C40.205 0.5987 35.6718 0.698206 34.2867 0.897221ZM33.6113 13.6674C27.9104 14.6956 23.091 18.1121 20.6069 22.9106C19.9201 24.2373 19.3477 26.2717 19.2103 27.886C19.1417 28.7484 19.0959 28.7926 19.84 27.2115C20.0803 26.714 20.481 26.0174 20.7329 25.6636C21.2594 24.9118 22.1294 23.9278 22.2096 23.9941C22.2325 24.0273 22.0951 24.2926 21.9119 24.5911C20.5382 26.7471 20.1147 30.6058 20.9961 33.0161C21.2823 33.8122 21.9463 34.7409 22.4614 35.0837C22.7476 35.2716 23.0223 35.349 23.3887 35.349C23.858 35.349 24.7624 35.1721 24.7624 35.0837C24.7624 35.0616 24.6364 34.7741 24.4762 34.4314C24.087 33.6242 23.9839 32.5739 24.2243 31.7999C24.3274 31.4682 24.4304 30.7385 24.4647 30.1857C24.5792 28.4388 25.1745 27.112 26.3421 26.0395C27.6471 24.8344 29.4329 24.2705 31.2073 24.5137C32.2147 24.6575 32.9931 24.9781 33.9089 25.6526L34.6301 26.1833L36.2556 25.4093C40.5713 23.3528 46.0203 21.6391 51.8357 20.4892C54.2282 20.0138 55.4187 19.7042 55.8652 19.4278C56.0483 19.3172 56.0483 19.3062 55.8423 19.3614C54.5716 19.6821 53.8504 19.7816 52.1791 19.8811C51.103 19.9364 50.027 20.0138 49.7751 20.0469C49.3401 20.1022 49.2256 20.0469 47.726 19.0076C44.2345 16.5973 41.7504 15.7571 38.133 15.7349C37.2058 15.7239 36.4846 15.6907 36.5304 15.6465C36.7021 15.4806 39.0832 15.3148 40.3309 15.3701C43.479 15.5138 46.5927 16.8516 48.8479 19.0076L49.7637 19.8811L50.3131 19.7595C50.6108 19.6821 50.8626 19.5826 50.8626 19.5384C50.8626 19.3725 49.8438 18.2669 49.1798 17.703C47.4742 16.2656 45.4136 15.1047 43.2043 14.3418C41.7161 13.8222 41.2353 13.7116 39.8158 13.5015C38.3505 13.2915 35.2597 13.3799 33.6113 13.6674ZM48.596 23.972C44.1315 24.4363 39.2778 25.7742 36.3472 27.3442C35.6833 27.7091 35.6489 27.7533 35.7634 27.9744C35.8435 28.1071 35.9122 28.2398 35.9351 28.2619C35.9466 28.284 36.1068 28.1955 36.29 28.0739C36.9425 27.6317 38.9343 26.7471 40.1592 26.3602C44.3261 25.0445 48.1839 24.359 51.5724 24.359C52.6942 24.3479 53.61 24.3147 53.61 24.2816C53.61 24.2152 53.0491 24.0494 52.408 23.9167C51.9387 23.8282 49.6721 23.8504 48.596 23.972ZM49.0883 24.6796C44.452 25.1992 39.8158 26.3712 37.2974 27.6427L36.1526 28.2287L36.1869 28.9916C36.1984 29.4117 36.2442 29.7766 36.2671 29.7987C36.29 29.8208 36.5647 29.6992 36.8738 29.5112C39.9532 27.6869 47.4742 26.0727 52.3851 26.1943L53.839 26.2275V25.6194C53.839 25.2877 53.7932 24.9449 53.7359 24.8565C53.507 24.5027 51.3663 24.4253 49.0883 24.6796ZM28.2767 25.6194C27.8532 25.7742 27.3724 26.0727 26.9488 26.4486C25.392 27.8528 25.0257 30.1304 26.0445 32.1095C26.3879 32.7729 27.4869 33.7459 28.2767 34.0997C29.1467 34.4866 30.738 34.5861 31.608 34.3097C34.0234 33.5247 35.1338 31.0481 34.218 28.4388C33.6571 26.8466 32.8557 25.9953 31.4477 25.5088C30.5891 25.2214 29.2612 25.2545 28.2767 25.6194ZM39.7471 29.9314C37.927 30.4842 38.0414 30.4179 38.4993 30.6501C39.232 31.0149 40.9834 30.8601 41.636 30.3626C41.945 30.1304 42.6204 29.1022 42.6204 28.8589C42.6204 28.7926 42.2427 28.9253 41.7848 29.1574C41.3269 29.3786 40.4111 29.7324 39.7471 29.9314ZM46.3409 30.241C45.1503 30.5506 43.0096 31.2913 41.739 31.8442C41.1208 32.1095 40.2623 32.4744 39.8272 32.6402C38.3276 33.2373 37.7667 33.978 37.7553 35.349C37.7553 35.9461 37.8125 36.2999 37.9728 36.6205C38.0987 36.8748 38.8313 37.6598 39.6555 38.4448C40.8461 39.5726 41.1781 39.9596 41.4642 40.5456C41.7848 41.1979 41.9336 41.9829 41.739 41.9829C41.7046 41.9829 41.3498 41.6954 40.972 41.3416C38.797 39.3294 36.8967 39.3625 36.8967 41.408C36.8967 43.0664 38.1101 45.3883 39.8616 47.0688C42.9753 50.0541 48.9738 52 50.6108 50.5737C51.2289 50.0209 51.1259 49.1143 50.3704 48.4509C49.7064 47.8649 49.5691 47.5996 49.6606 47.0578C49.7637 46.505 50.1643 46.1843 50.771 46.1843C51.1374 46.1843 51.2175 46.1512 51.1832 45.9964C51.0801 45.4878 49.4317 45.3219 48.3327 45.6979C47.7604 45.8969 47.7489 45.8969 47.5886 45.6868C47.3482 45.3662 47.394 45.0897 47.7718 44.7249C48.0809 44.4374 48.1725 44.4042 48.5617 44.4706C48.9165 44.5259 49.3058 44.4485 50.4505 44.0615C51.7555 43.6303 51.8929 43.564 51.8357 43.3649C51.7899 43.2433 51.6983 42.9227 51.6182 42.6573C51.5037 42.2593 51.3892 42.1266 51.0229 41.9497C50.2445 41.5738 49.9468 41.2311 49.9468 40.7003C49.9468 40.4129 50.027 40.1365 50.1643 39.9817L50.3818 39.7163L50.3246 40.2581L50.2559 40.7888L50.7596 40.7003C51.3663 40.5787 52.7629 40.5787 53.5528 40.7003C54.2053 40.7888 54.8921 40.5345 54.9608 40.1696C54.9837 40.0591 54.7433 39.4399 54.4342 38.7876C53.8733 37.6488 52.8316 34.9731 52.4996 33.8564C52.4195 33.5468 52.2936 32.6844 52.2363 31.9326C52.1676 31.0923 52.0761 30.4953 51.9845 30.4068C51.4922 29.9314 47.955 29.8319 46.3409 30.241ZM24.7853 36.0898C23.6863 37.1291 22.347 38.0026 20.7558 38.7323C19.9086 39.1303 18.9013 39.5947 18.5235 39.7827L17.8366 40.1033L18.409 40.048C21.786 39.661 25.4263 37.306 25.8384 35.2385L25.9186 34.8515L25.6667 35.1832C25.5293 35.3601 25.1287 35.7802 24.7853 36.0898ZM33.3938 36.6205C32.7527 36.9964 32.7184 37.0296 32.4322 37.8588C31.5507 40.3908 29.7191 42.2925 27.235 43.2986C25.9872 43.7961 25.9186 43.7188 27.1091 43.1549C29.3986 42.0935 30.7608 40.7667 31.9628 38.4559C32.4665 37.505 32.5581 37.107 32.0888 37.9252C30.9898 39.8379 29.3757 41.4522 27.7616 42.2372C26.594 42.8011 25.5522 43.0554 23.9725 43.177L22.8964 43.2544L23.3658 43.5087C24.293 44.0062 26.2276 44.2273 27.3953 43.962C29.3528 43.5308 31.4019 41.7839 32.6039 39.5284C33.0961 38.6107 34.1722 36.2336 34.1035 36.2336C34.0806 36.2336 33.7601 36.4105 33.3938 36.6205ZM29.1696 37.6709C27.8761 39.3846 26.6054 40.2913 24.9341 40.7114C24.0068 40.9436 22.6675 41.032 21.9005 40.8994C21.2709 40.7888 21.2823 40.7888 22.3469 40.7777C24.3617 40.7556 25.6782 40.2249 26.9145 38.9424C27.338 38.5001 27.8074 37.9252 27.9562 37.6598L28.2424 37.1733L27.8417 37.4829C25.8384 39.0419 24.1213 39.9153 22.4729 40.2139C22.1867 40.2691 21.2136 40.3576 20.2978 40.435C18.1343 40.5898 16.2912 40.833 15.4098 41.0763L14.7 41.2642L16.2683 41.2753C18.0656 41.2863 18.7868 41.419 20.6184 42.1045C22.3126 42.7347 23.2513 42.79 24.6021 42.3699C26.2276 41.8613 27.5441 40.9657 28.5629 39.6721C29.1582 38.9092 30.2572 36.8527 30.2572 36.4989C30.2457 36.2446 30.2343 36.2667 29.1696 37.6709ZM33.4052 46.1512C33.9547 47.2457 35.3169 48.6057 36.496 49.2248C37.263 49.645 39.2205 50.4963 39.3922 50.4963C39.438 50.4963 39.0488 50.2752 38.5451 50.0099C36.5533 48.9816 34.8247 47.5664 33.6914 46.0295C33.348 45.5762 33.0503 45.2224 33.016 45.2445C32.9931 45.2777 33.1648 45.6868 33.4052 46.1512ZM23.5146 47.1241C23.3314 48.1192 22.7133 49.9435 22.1981 50.9054C21.5685 52.1106 20.7557 53.1388 19.1188 54.7862C18.2831 55.6265 17.333 56.6548 17.001 57.086C16.0966 58.2469 14.9519 60.624 15.1923 60.8562C15.2953 60.9668 19.6682 58.7887 20.8244 58.0589C23.8809 56.1241 25.93 52.6523 26.7771 48.0086C26.8687 47.5222 26.9374 47.091 26.9374 47.0357C26.9374 46.9915 26.7084 46.9583 26.4337 46.9583C25.9415 46.9583 24.3274 46.5271 23.961 46.2949C23.7206 46.1512 23.6634 46.2507 23.5146 47.1241ZM17.7565 47.3231C17.0468 48.0197 16.5889 48.3514 15.9478 48.6499C14.5512 49.3133 13.9788 49.4128 11.7122 49.4018C9.03353 49.3907 8.72444 49.4791 7.68272 50.5184C7.24772 50.9386 6.86995 51.414 6.83561 51.5578C6.77837 51.7678 6.92719 52.0553 7.47667 52.8735C7.87733 53.4484 8.22076 53.9238 8.26655 53.9238C8.30089 53.9128 8.66721 53.6695 9.06787 53.371C9.47998 53.0725 10.6362 52.4202 11.6436 51.9226C12.6624 51.4251 13.7499 50.8501 14.059 50.6622C14.3795 50.4632 14.7687 50.242 14.9175 50.1646L15.2037 50.0209L14.9633 50.2863C14.8374 50.43 14.1963 51.1155 13.5553 51.8121C12.9142 52.4975 12.1243 53.4152 11.8153 53.8575C10.8766 55.14 10.2927 56.3784 10.7049 56.2125C11.8839 55.726 12.5021 55.527 14.0017 55.14C16.0508 54.5983 16.9323 54.2445 17.9626 53.5369C19.3019 52.6081 20.4581 50.8944 20.9847 49.059C21.3625 47.7101 21.3968 47.7654 19.9773 47.0578C19.3019 46.715 18.741 46.4276 18.7295 46.4165C18.7181 46.4055 18.2831 46.8146 17.7565 47.3231Z" fill="#8594CC"/>
<path d="M38.6252 16.2326C41.6931 16.4979 44.7038 17.7362 46.7415 19.5826C47.2909 20.0691 47.4283 20.246 47.3024 20.3234C46.9475 20.5446 46.5354 20.3898 45.2304 19.5384C41.9221 17.3824 39.2663 16.5532 35.6946 16.5421C34.63 16.5421 34.0691 16.4979 34.2294 16.4426C34.4812 16.3431 36.8737 16.0999 37.2973 16.122C37.4232 16.133 38.0185 16.1883 38.6252 16.2326Z" fill="#8594CC"/>
<path d="M36.9536 18.9415C38.2358 19.1294 39.8956 19.5827 41.0175 20.036C42.2309 20.5225 43.7649 21.2412 43.7649 21.3075C43.7649 21.3849 42.3454 21.8604 42.105 21.8604C42.0134 21.8604 41.4067 21.6061 40.7657 21.2965C39.266 20.5668 37.9267 20.0803 36.3698 19.6822C35.1793 19.3837 35.0076 19.3727 32.6608 19.3727C30.7949 19.3837 30.005 19.4279 29.3983 19.5606C28.9633 19.6601 28.5855 19.7265 28.5626 19.7043C28.4711 19.6159 30.4515 19.0852 31.436 18.9304C32.741 18.7203 35.5571 18.7314 36.9536 18.9415Z" fill="#8594CC"/>
<path d="M31.2306 26.9352C32.2265 27.2005 32.9706 27.7755 33.4285 28.6489C34.0924 29.8983 33.6918 31.7337 32.547 32.7287C30.372 34.6194 26.9149 33.1931 26.9034 30.3958C26.892 28.9253 27.533 27.886 28.8037 27.289C29.5592 26.9352 30.6238 26.7804 31.2306 26.9352ZM29.2501 27.5654C28.2771 27.9524 27.7505 28.7816 27.7391 29.9094C27.7391 31.3688 28.6778 32.2533 30.2232 32.2533C32.3753 32.2533 33.543 29.8209 32.1693 28.2177C31.9746 27.9855 31.6083 27.7091 31.3565 27.5986C30.7841 27.3443 29.8225 27.3332 29.2501 27.5654Z" fill="#8594CC"/>
<path d="M49.1568 30.4731C49.6262 30.6169 49.9581 30.8048 50.8282 31.4572C51.2861 31.7888 51.6638 32.1426 51.6638 32.2532C51.6638 32.4965 51.3662 32.7397 50.1642 33.5136C49.6262 33.8564 49.008 34.3097 48.8019 34.5198L48.4242 34.8957L48.6875 35.2827C49.008 35.7913 48.8592 35.8576 47.806 35.6807C46.9932 35.548 46.1461 35.1832 44.5778 34.2544C44.0512 33.9448 43.3415 33.6132 42.9866 33.5136C42.2311 33.3036 41.7045 33.0603 41.7045 32.9277C41.7045 32.8724 41.9793 32.795 42.3112 32.7618C43.1011 32.6623 43.7994 32.3417 45.1502 31.4572C46.0317 30.8822 46.4209 30.6943 47.0619 30.5505C47.9205 30.3626 48.6646 30.3405 49.1568 30.4731ZM45.8828 32.1095C44.9327 32.5628 43.891 33.2925 44.1314 33.3367C44.2344 33.3589 45.0357 33.0935 45.9172 32.7618C46.7986 32.4191 47.5656 32.1426 47.6343 32.1426C47.806 32.1426 47.909 31.9436 47.8175 31.7999C47.6801 31.5788 46.6155 31.7557 45.8828 32.1095ZM45.3906 33.8122C45.196 33.8785 45.0243 33.978 45.0243 34.0333C45.0243 34.1991 46.2377 34.7299 46.4438 34.6525C46.5811 34.5972 46.6269 34.4424 46.6269 34.0665V33.5579L46.1919 33.6242C45.963 33.6684 45.5967 33.7569 45.3906 33.8122Z" fill="#8594CC"/>
</svg>
