<svg width="68" height="68" viewBox="0 0 68 68" fill="none" xmlns="http://www.w3.org/2000/svg">
<path d="M38.1734 3.90759C39.8183 4.14483 40.9413 4.42953 42.8392 5.09381C45.1168 5.86881 45.1168 5.86881 43.978 6.29585C42.2857 6.9285 40.704 8.30452 39.929 9.82288C39.7076 10.2657 39.5178 10.7086 39.5178 10.7877C39.5178 10.8668 39.8974 11.1198 40.3719 11.3254C41.6688 11.9265 42.8392 12.7173 43.9938 13.8086L45.0377 14.7892L46.0341 14.1882C46.5877 13.8719 47.7897 13.081 48.7229 12.4484C50.6999 11.104 50.6367 11.0566 50.0515 13.5397C49.3556 16.4657 49.2607 17.4622 49.5453 18.8382C49.6877 19.5025 49.9724 20.657 50.178 21.4004C50.3994 22.128 50.5576 22.7606 50.526 22.7922C50.4943 22.8081 50.1147 22.8713 49.6561 22.9346L48.8494 23.0295V23.7887C48.8494 25.7973 49.4663 28.6285 50.4311 31.0642C51.127 32.7881 51.2061 33.4208 50.7948 33.832C50.4627 34.1642 49.3556 34.6703 48.9601 34.6861C48.7387 34.6861 48.6913 34.8443 48.6913 35.6825C48.6913 36.4733 48.628 36.758 48.3908 36.9636C48.201 37.1376 48.0586 37.5488 47.9953 38.055C47.8688 39.1937 47.853 39.3835 47.9005 40.4274C47.9321 41.1391 47.8688 41.4555 47.6316 41.7718C46.9989 42.6417 44.8954 42.958 42.3015 42.5942C41.2892 42.4361 41.1785 42.4519 40.8464 42.7682C40.6566 42.9422 40.3403 43.4483 40.1663 43.8595C39.8025 44.7136 39.4229 46.6907 39.5495 47.0386C39.7076 47.4498 42.001 48.1141 43.804 48.2723C46.3979 48.5253 48.0586 49.3003 48.9285 50.6605C49.1499 51.0243 49.4663 51.3406 49.6086 51.3881C50.9372 51.8151 51.7438 52.4636 52.155 53.4758C52.329 53.8713 52.6453 54.1243 53.6101 54.6304C54.306 54.9942 54.8596 55.3422 54.8596 55.4054C54.8596 55.4845 54.5433 55.8008 54.1637 56.1172C53.4678 56.6866 53.452 56.6866 53.0407 56.4177C52.5346 56.0855 52.3765 56.2279 52.6137 56.7656C52.7244 56.9871 52.7561 57.2559 52.6928 57.3667C52.5188 57.6513 50.8739 59.0432 50.6999 59.0432C50.6209 59.0432 50.6209 58.6478 50.6999 58.1258C50.8581 56.9712 50.7948 54.6937 50.5892 54.0452C50.4943 53.7764 50.2729 53.4126 50.0831 53.2544C49.751 52.9539 49.751 52.9539 49.8459 53.4284C49.9091 53.6815 50.004 54.6146 50.0515 55.4845C50.1938 57.5248 49.9249 59.1855 49.3714 59.8498C48.9443 60.3559 48.0902 60.8621 47.9321 60.7197C47.8846 60.6564 47.9953 59.9605 48.1851 59.1539C48.5489 57.5565 48.7545 56.1962 48.628 56.1962C48.5806 56.1962 48.2959 56.7498 47.9795 57.4141C47.2362 59.0116 46.3505 60.1345 45.0693 61.0993C43.1872 62.5228 40.9413 62.9498 38.1102 62.4595C35.1209 61.9376 33.1122 61.0677 27.7979 57.9835C18.5454 52.606 15.2714 51.1667 11.3648 50.7554L10.4949 50.6605L11.9184 51.1825C15.3347 52.4636 17.9128 53.8238 22.4362 56.734C30.2337 61.732 30.4709 61.8743 33.9505 63.0922C35.3107 63.5666 36.4495 63.9937 36.4969 64.0569C36.6709 64.2309 32.4954 63.9304 31.4357 63.6932C30.0913 63.3927 27.6714 62.0483 23.5434 59.3279C18.6403 56.0855 15.0658 54.1401 12.2822 53.1753C11.2857 52.8274 11.2067 52.8116 10.9378 53.0804C10.6373 53.3335 10.6056 53.3019 9.9888 52.3529C9.62503 51.8151 9.07146 50.9927 8.73932 50.534C8.16993 49.7432 8.1383 49.6641 8.40718 49.4743C8.56534 49.3636 9.35615 49.1106 10.147 48.9208C10.9536 48.7151 12.4245 48.1774 13.4526 47.7029C15.8092 46.6116 16.7265 46.4376 18.4031 46.7539C19.5102 46.9595 19.7316 46.9595 20.1112 46.7539C20.8071 46.406 21.7561 45.3305 22.3888 44.2233C22.8949 43.306 23.8597 40.981 23.8597 40.6488C23.8597 40.5856 23.4327 40.5698 22.9107 40.633C21.4556 40.7912 21.3449 40.6805 22.1041 39.7948C23.0689 38.6402 23.5434 37.4856 23.5434 36.2835C23.5434 35.5244 23.4959 35.3029 23.3378 35.3662C23.227 35.4136 22.4679 35.9198 21.677 36.4891C19.7158 37.8968 18.1184 38.9249 17.4383 39.2096C16.8847 39.4468 16.8689 39.431 16.9796 39.1621C17.549 37.8335 17.8495 36.2835 17.8495 34.6703C17.8495 32.9937 17.8337 32.8672 16.9005 30.0519C16.3786 28.4703 15.8408 26.6672 15.7301 26.0662C14.9393 22.2229 15.5087 17.9999 17.2959 14.3622C19.8898 9.07952 24.698 5.41014 30.6291 4.16065C32.6219 3.73361 36.228 3.6229 38.1734 3.90759ZM30.6449 5.88463C27.1811 6.67544 24.5556 8.09891 22.1199 10.4872C18.6403 13.9035 17.0587 17.6836 17.0587 22.6183C17.0587 24.8958 17.4541 26.9203 18.4347 29.6091C18.8301 30.7004 19.1623 31.6177 19.1781 31.6335C19.273 31.7443 21.1709 30.305 21.1709 30.1468C21.1709 30.0361 21.0444 29.6091 20.8704 29.1978C19.8898 26.6989 19.7158 23.156 20.4276 20.4198C20.9337 18.4744 21.5663 17.1616 22.7209 15.5958C25.6944 11.5943 30.7081 9.45911 35.8484 10.0285C36.6867 10.1076 37.4933 10.2183 37.6199 10.2499C37.778 10.2974 38.0311 9.99686 38.3949 9.26931C38.6954 8.69993 39.328 7.7984 39.8183 7.29228C40.4984 6.54891 40.6408 6.32748 40.4668 6.21677C40.3403 6.13769 39.5653 5.96371 38.727 5.82136C37.9046 5.67902 37.1137 5.53667 36.9872 5.50504C36.3071 5.33106 31.8944 5.59994 30.6449 5.88463ZM31.4515 11.9106C30.3918 12.1321 29.4587 12.4484 28.2883 13.0336C26.849 13.7611 26.4536 14.0458 25.125 15.3744C22.9423 17.5571 22.0724 19.3917 21.6296 22.6815C21.2816 25.4177 21.7878 27.9009 23.2429 30.4315C24.3184 32.3295 24.777 33.3733 25.0301 34.5437L25.2357 35.556L25.6627 34.6386C25.8842 34.1325 26.2321 33.1994 26.4219 32.5509C26.8015 31.254 26.8332 31.3647 25.8209 29.783C25.0459 28.5494 24.6189 27.3315 24.5398 26.0662C24.2393 21.8433 27.4974 18.2372 31.6097 18.2372C32.8117 18.2372 33.7132 18.4744 35.0418 19.1387L36.1806 19.6923L38.7586 18.3162C41.8586 16.6555 43.4719 15.7065 43.4719 15.5484C43.4719 15.3586 42.001 14.1724 40.9255 13.5081C38.2209 11.8157 34.7571 11.2305 31.4515 11.9106ZM47.5367 15.1372C46.303 16.0545 41.6372 18.68 37.6831 20.657L35.6112 21.7009L35.1525 21.2264C34.9153 20.9734 34.3143 20.5621 33.824 20.3407C33.0964 19.9769 32.7326 19.9137 31.6097 19.8979C30.4551 19.8979 30.1388 19.9611 29.3796 20.3249C28.2408 20.8943 27.1495 21.9856 26.5959 23.1086C26.2005 23.9152 26.1531 24.1841 26.1531 25.5917C26.1531 26.9994 26.2005 27.2683 26.5801 28.0433C27.2444 29.3718 28.0036 30.1784 29.2056 30.7637C30.1388 31.2223 30.4076 31.2856 31.5306 31.2856C32.5903 31.2856 32.9382 31.2223 33.6974 30.8427C35.5005 29.957 36.7025 28.0591 36.7974 25.9397C36.8449 25.0065 36.9239 24.6902 37.1296 24.5795C37.9204 24.1524 45.1326 22.207 47.6948 21.7009C48.5015 21.5586 48.6913 21.4637 48.6913 21.2264C48.6913 21.005 48.5806 20.9259 48.2959 20.9259C47.6316 20.9259 43.2979 21.9382 39.929 22.8871C38.1892 23.3774 36.7183 23.7729 36.6709 23.7729C36.5444 23.7729 36.1964 22.6815 36.1964 22.3178C36.1964 22.1754 36.3546 22.0331 36.5444 21.9856C36.75 21.954 38.2683 21.5111 39.9449 21.0208C41.6214 20.5305 43.9306 19.9137 45.0852 19.6606C46.2397 19.4076 47.3311 19.1545 47.5209 19.107C47.8214 19.0438 47.8688 18.8856 47.9637 17.3356C48.0112 16.3866 48.1061 15.4377 48.1535 15.1846C48.28 14.6627 48.1851 14.6469 47.5367 15.1372ZM45.0219 23.8678C42.7918 24.3422 39.4387 25.4019 38.9484 25.7973C38.7586 25.9555 38.4265 26.6198 38.1892 27.3473C37.952 28.0591 37.4775 29.1029 37.1454 29.6723C36.7974 30.2417 36.5127 30.8111 36.5127 30.9218C36.5127 31.0325 36.7342 31.7284 36.9872 32.4718C37.8097 34.8443 37.525 36.4733 36.0857 37.3749L35.4056 37.8177L36.1964 38.5295C37.2403 39.4626 39.9132 40.7912 41.4158 41.1233C42.0642 41.2657 43.3612 41.3764 44.2785 41.3922C45.7336 41.408 46.0183 41.3606 46.303 41.1075C46.6826 40.7595 46.73 40.1111 46.4454 39.3203C46.2872 38.8932 46.303 38.7034 46.5403 38.2289C46.8408 37.5647 46.7933 37.4856 45.9709 37.2167C45.6387 37.1218 45.3224 36.9636 45.2749 36.8687C45.0852 36.584 45.6545 36.2203 46.5877 36.0305L47.505 35.8407L47.4576 34.9708C47.3943 33.9111 47.7107 33.4841 48.6596 33.3259C49.7035 33.1677 49.751 33.0728 49.4188 32.2029C48.3433 29.4667 47.7423 27.3948 47.5841 25.829C47.3469 23.7096 47.2994 23.4565 47.1096 23.4565C47.0306 23.4565 46.0816 23.6463 45.0219 23.8678ZM20.7755 32.6774L19.6684 33.4999L19.526 34.6545C19.4628 35.2871 19.4311 35.8565 19.4786 35.9039C19.5418 35.9672 22.373 34.0534 23.0372 33.4999C23.1638 33.3892 22.2464 31.8392 22.0724 31.8392C21.9776 31.8392 21.3765 32.2188 20.7755 32.6774ZM34.7729 32.8356C35.3265 33.7371 35.0576 35.3029 34.251 35.8723C33.5709 36.3468 34.4566 36.8529 35.2632 36.4259C36.1648 35.9356 36.3071 33.8478 35.5163 32.6458C35.1367 32.0764 35.0418 32.0131 34.7729 32.1555C34.4724 32.3136 34.4724 32.3295 34.7729 32.8356ZM28.2883 32.5193C28.2883 32.8989 26.4061 36.5208 25.9633 36.9795C25.125 37.881 24.4923 38.656 24.4923 38.7983C24.4923 39.2096 26.4852 38.6718 27.7505 37.9284C29.3321 37.0111 30.3444 35.7142 30.3444 34.6545C30.3444 34.3223 30.4551 33.7846 30.5816 33.4682C30.8821 32.7565 30.8821 32.7881 30.4551 32.7881C30.2653 32.7723 29.7434 32.6458 29.3163 32.4876C28.4939 32.1871 28.2883 32.2029 28.2883 32.5193ZM32.1791 33.1361C31.6729 33.8478 32.0683 34.6861 32.8908 34.6861C33.6658 34.6861 34.1245 33.579 33.5709 33.0412C33.2071 32.6616 32.4638 32.7249 32.1791 33.1361ZM30.9928 37.1218C30.2653 38.0866 29.4903 38.7825 28.4939 39.3044C27.703 39.7315 27.6398 39.858 26.7857 43.0687C26.4377 44.3815 25.9474 45.7733 25.4888 46.6907C24.6663 48.3672 24.6031 48.209 26.3112 48.8575C26.9122 49.0947 28.8418 49.933 30.5816 50.7396C35.9908 53.2386 37.6831 53.8238 39.5178 53.8238C40.9571 53.8238 41.9693 53.3177 43.3454 51.91C43.9464 51.2932 44.4209 50.7238 44.3734 50.6131C44.3102 50.4233 40.1188 48.7784 39.6918 48.7626C39.5336 48.7626 39.502 48.9208 39.5653 49.4427C39.8341 51.3248 38.4898 50.4708 38.0785 48.4779C37.8097 47.1177 38.3316 44.3498 39.2648 42.2463C39.3597 42.0407 39.1066 41.8509 37.9362 41.234C35.975 40.2218 34.9311 39.431 33.3495 37.7228C32.6061 36.932 31.926 36.2835 31.8153 36.2677C31.7046 36.2677 31.3408 36.6473 30.9928 37.1218ZM24.7296 42.357C24.0495 44.1759 23.4327 45.3621 22.5786 46.4534C21.7403 47.4973 21.7878 47.7662 22.7209 47.2759C23.8913 46.659 24.7138 45.2197 25.3622 42.6575C26.0898 39.7948 25.726 39.6208 24.7296 42.357ZM18.5612 48.3356C18.7352 48.4621 19.4469 48.8575 20.1429 49.2371C20.8388 49.6167 23.0689 50.9136 25.0934 52.1156C27.102 53.3177 29.6326 54.7253 30.6765 55.2631C34.9627 57.3983 39.2489 58.2998 41.7795 57.5565C42.8551 57.2401 44.326 55.959 45.0377 54.7253C45.702 53.5391 46.2397 51.6095 45.876 51.6095C45.8127 51.6095 45.1168 52.2264 44.3418 53.0014C42.5229 54.757 41.5265 55.2789 39.7392 55.3738C37.5408 55.5003 36.1331 55.0258 29.4745 51.9575C23.9071 49.3952 20.5225 48.1932 18.7194 48.1458C18.2765 48.1299 18.2765 48.1458 18.5612 48.3356ZM15.0816 49.3636C15.1765 49.4269 15.6352 49.6641 16.1097 49.8855C17.723 50.5973 22.6418 53.2861 26.9439 55.8008C34.1086 59.9922 36.3704 60.9253 39.6127 61.0677C41.2892 61.1309 41.653 61.0993 42.5704 60.7988C44.6107 60.1187 45.8602 58.9167 46.9673 56.5917C47.6948 55.0417 48.1851 52.8432 47.9163 52.1947C47.6948 51.6253 47.426 51.6412 47.426 52.2422C47.426 53.4284 45.8918 56.1646 44.5632 57.3983C42.5545 59.233 40.5775 59.6917 37.2245 59.1064C33.9347 58.5529 30.7714 57.1769 25.2515 53.9503C21.7087 51.8942 16.9796 49.4427 16.3311 49.3478C15.5087 49.2371 14.9393 49.2371 15.0816 49.3636Z" fill="#334571"/>
<path d="M33.2701 21.7326C34.741 22.4602 35.6267 23.9311 35.6267 25.5918C35.6109 27.9642 33.7129 29.9413 31.4512 29.9413C30.3599 29.9413 29.4742 29.5459 28.6043 28.676C27.7027 27.7745 27.339 26.9362 27.339 25.6709C27.339 23.9153 28.2721 22.4444 29.8696 21.7326C30.8186 21.2898 32.4002 21.2898 33.2701 21.7326ZM30.0752 23.3933C28.7941 24.3581 28.4777 26.0347 29.3476 27.2367C29.7114 27.727 30.8818 28.3597 31.4354 28.3597C32.1313 28.3597 33.0961 27.7745 33.5548 27.0627C34.4247 25.7183 33.8869 23.7571 32.4793 23.1245C31.9573 22.8872 30.5339 23.0612 30.0752 23.3933Z" fill="#334571"/>
<path d="M32.2422 24.7218C32.7167 25.1963 32.6692 26.0346 32.1473 26.4458C31.1351 27.2366 29.9488 26.3984 30.3601 25.1963C30.6606 24.3739 31.6412 24.1208 32.2422 24.7218Z" fill="#334571"/>
<path d="M45.5278 24.8957C46.0972 25.133 46.4768 25.5126 46.4768 25.8447C46.4768 26.3192 46.0181 26.4457 44.9743 26.2718C43.4401 26.0345 42.5386 26.2876 40.5141 27.5687C39.8498 27.9957 39.2013 28.1855 39.2013 27.9641C39.2013 27.2207 40.6564 25.7024 41.8584 25.1646C42.7125 24.785 44.8952 24.6269 45.5278 24.8957Z" fill="#334571"/>
<path d="M45.3223 26.9521C45.8442 27.2842 45.9866 27.6164 45.686 27.8062C45.5912 27.8694 45.4172 28.1383 45.3065 28.4388C45.0218 29.1031 44.5789 29.3562 44.0412 29.1505C43.6457 29.0082 43.4718 28.6761 43.7881 28.6761C43.8672 28.6761 43.9463 28.5653 43.9463 28.423C43.9463 28.2806 43.8514 28.2174 43.7406 28.2648C42.8708 28.6286 42.3488 28.7235 42.1748 28.5495C41.906 28.2806 42.1906 28.0434 43.6141 27.2684C44.2626 26.9046 44.7845 26.6199 44.8003 26.6199C44.8003 26.6199 45.0534 26.7781 45.3223 26.9521Z" fill="#334571"/>
<circle cx="34" cy="34" r="33.4" stroke="#334571" stroke-width="1.2"/>
</svg>
